<?xml version="1.0" encoding="UTF-8" standalone="no"?>
<!-- Created with Inkscape (http://www.inkscape.org/) -->

<svg
   width="138mm"
   height="135mm"
   viewBox="0 0 138 135"
   version="1.1"
   id="svg1"
   inkscape:version="1.3 (0e150ed6c4, 2023-07-21)"
   sodipodi:docname="ART-Icon.svg"
   xml:space="preserve"
   xmlns:inkscape="http://www.inkscape.org/namespaces/inkscape"
   xmlns:sodipodi="http://sodipodi.sourceforge.net/DTD/sodipodi-0.dtd"
   xmlns="http://www.w3.org/2000/svg"
   xmlns:svg="http://www.w3.org/2000/svg"><sodipodi:namedview
     id="namedview1"
     pagecolor="#ffffff"
     bordercolor="#999999"
     borderopacity="1"
     inkscape:showpageshadow="2"
     inkscape:pageopacity="0"
     inkscape:pagecheckerboard="0"
     inkscape:deskcolor="#d1d1d1"
     inkscape:document-units="mm"
     inkscape:zoom="1.4342733"
     inkscape:cx="461.20917"
     inkscape:cy="255.5301"
     inkscape:window-width="1920"
     inkscape:window-height="1011"
     inkscape:window-x="0"
     inkscape:window-y="0"
     inkscape:window-maximized="1"
     inkscape:current-layer="layer1" /><defs
     id="defs1"><linearGradient
       id="swatch20"
       inkscape:swatch="solid"><stop
         style="stop-color:#a475db;stop-opacity:1;"
         offset="0"
         id="stop20" /></linearGradient></defs><g
     inkscape:label="Layer 1"
     inkscape:groupmode="layer"
     id="layer1"><ellipse
       style="fill:#3333d4;fill-opacity:1;stroke-width:0.390834"
       id="path4"
       cx="68.933189"
       cy="67.457085"
       rx="64.560356"
       ry="63.633511" /><rect
       style="fill:#3388d4;fill-opacity:1;stroke-width:0.715475"
       id="rect7-5"
       width="3.2335145"
       height="126.79214"
       x="67.732651"
       y="4.2415881" /><rect
       style="fill:#3388d4;fill-opacity:1;stroke-width:0.742476"
       id="rect7"
       width="129.05855"
       height="3.4210305"
       x="4.3494105"
       y="65.682358" /><ellipse
       style="fill:#3333d4;fill-opacity:1;stroke-width:0.289487"
       id="path7"
       cx="68.718185"
       cy="66.957214"
       rx="26.046505"
       ry="26.293121" /><ellipse
       style="fill:#3388d4;fill-opacity:1;stroke-width:0.159234"
       id="path8"
       cx="68.330681"
       cy="67.212502"
       rx="27.240608"
       ry="27.453333" /><ellipse
       style="fill:#3388d4;fill-opacity:1;stroke-width:0.268369"
       id="path8-2"
       cx="68.190536"
       cy="68.576599"
       rx="46.310535"
       ry="45.869522" /><ellipse
       style="fill:#3333d4;fill-opacity:1;stroke-width:0.416888"
       id="path9"
       cx="68.438438"
       cy="68.248894"
       rx="41.630692"
       ry="41.497192" /><ellipse
       style="fill:#3388d4;fill-opacity:1;stroke-width:0.248899"
       id="path10"
       cx="68.363045"
       cy="67.688408"
       rx="27.233215"
       ry="27.507347" /><rect
       style="fill:#3388d4;fill-opacity:1;stroke-width:0.231166"
       id="rect11"
       width="4.9078588"
       height="127.31186"
       x="66.879768"
       y="3.5280335" /><rect
       style="fill:#3388d4;fill-opacity:1;stroke-width:0.238418"
       id="rect11-7"
       width="129.84325"
       height="5.1188035"
       x="4.0179863"
       y="65.27137" /><ellipse
       style="fill:#3333d4;fill-opacity:1;stroke-width:0.234877"
       id="path11"
       cx="68.407883"
       cy="67.322563"
       rx="22.422169"
       ry="22.070589" /><path
       style="fill:#3333d4;fill-opacity:1;stroke:#a475db;stroke-width:14.96;stroke-linecap:round;stroke-linejoin:round;stroke-dasharray:none;stroke-opacity:1;paint-order:normal"
       d="M 68.905335,65.816005 C 108.37647,30.332223 108.53584,30.136558 108.53584,30.136558 Z"
       id="path12-2" /><path
       style="fill:#3333d4;fill-opacity:1;stroke:#3333d4;stroke-width:9.85888;stroke-linecap:round;stroke-linejoin:round;stroke-dasharray:none;stroke-opacity:1;paint-order:normal"
       d="M 66.207732,73.194111 C 65.090807,72.825193 64.37964,72.398729 63.483127,71.560252 61.874462,70.055718 61.125294,68.148232 61.28965,65.975348 61.392464,64.6161 62.035073,62.986109 62.834923,62.055739 63.059502,61.794513 71.875134,53.808731 82.425222,44.30955 97.764468,30.498264 101.82202,26.931479 102.67951,26.505014 c 0.82415,-0.409886 1.39112,-0.555153 2.45002,-0.627722 3.07765,-0.210921 5.5742,1.274441 6.91427,4.113754 0.48621,1.030156 0.54461,1.324286 0.54094,2.72409 -0.005,1.971603 -0.42878,3.123138 -1.67097,4.542465 -0.48753,0.557068 -9.37258,8.651615 -19.74455,17.987878 -21.178811,19.063975 -19.904735,18.04534 -22.676784,18.13035 -0.977552,0.02998 -1.855091,-0.03981 -2.284704,-0.181718 z"
       id="path13" /><path
       style="fill:#00efef;fill-opacity:1;stroke:#ffffff;stroke-width:4.96;stroke-linecap:round;stroke-linejoin:round;stroke-dasharray:none;stroke-opacity:1;paint-order:normal"
       d="M 68.003942,67.141088 C 107.47508,31.657303 107.63445,31.461638 107.63445,31.461638 Z"
       id="path12-7" /><path
       style="fill:#3333d4;fill-opacity:1;stroke:#3333d4;stroke-width:14.0896;stroke-linecap:round;stroke-linejoin:round;stroke-dasharray:none;stroke-opacity:1;paint-order:normal"
       d="m 28.241999,28.607022 c -0.404659,0.113826 -0.662322,0.245409 -0.987132,0.504117 -0.582829,0.464214 -0.854236,1.052758 -0.794688,1.72319 0.03728,0.419388 0.270055,0.922312 0.559855,1.209373 0.08131,0.08059 3.275271,2.544566 7.097592,5.475485 5.557441,4.261393 7.027507,5.361904 7.338173,5.493488 0.298586,0.126467 0.504012,0.171289 0.887649,0.193681 1.115037,0.06508 2.019548,-0.393221 2.505066,-1.269277 0.176138,-0.317848 0.197304,-0.408601 0.195961,-0.840502 -5.31e-4,-0.608327 -0.155338,-0.963626 -0.60538,-1.401552 -0.176637,-0.171879 -3.39571,-2.669405 -7.153503,-5.550058 -7.673122,-5.882079 -7.211521,-5.567784 -8.215837,-5.594014 -0.354173,-0.0092 -0.672107,0.01227 -0.827756,0.05606 z"
       id="path13-2" /><path
       d="m 34.65974,32.219077 h 7.851199 a 0.31511083,0.30586154 0 0 1 0.314154,0.30494 v 8.505163 c -0.01422,0.237687 -0.33029,0.243215 -0.671975,0.228475 h -7.609166 c -0.47267,0 -0.858968,0.374958 -0.858968,0.833745 0,0.458794 0.386298,0.83375 0.858968,0.83375 h 7.609166 v -0.887179 h 0.671975 v 1.127636 c 0,0.205435 -0.172733,0.373113 -0.384391,0.373113 h -7.863533 c -0.850415,7.14e-4 -1.546132,-0.674375 -1.546132,-1.499828 v -8.238916 c 0,-0.869678 0.73273,-1.580899 1.628703,-1.580899 z m 0.302774,1.234501 h 0.271454 c 0.13857,0 0.25246,0.08936 0.25246,0.198074 v 6.215806 c 0,0.10871 -0.11389,0.198073 -0.25246,0.198073 h -0.271454 c -0.138571,0 -0.252468,-0.08936 -0.252468,-0.198073 v -6.215806 c 7.11e-4,-0.109631 0.113897,-0.198074 0.252468,-0.198074 z"
       fill-rule="evenodd"
       clip-rule="evenodd"
       id="path20"
       style="fill:#ffffff;stroke-width:0.0935094" /><path
       style="fill:#3333d4;fill-opacity:1;stroke:#3333d4;stroke-width:13.9629;stroke-linecap:round;stroke-linejoin:round;stroke-dasharray:none;stroke-opacity:1;paint-order:normal"
       d="m 29.641539,107.55962 c -0.386329,-0.1171 -0.632307,-0.25246 -0.942424,-0.51858 -0.556423,-0.47754 -0.815543,-1.08295 -0.758686,-1.77262 0.03553,-0.43141 0.257832,-0.94877 0.53449,-1.24406 0.07771,-0.0829 3.126921,-2.61756 6.776097,-5.632544 5.305707,-4.383628 6.709191,-5.5157 7.005774,-5.651067 0.285053,-0.130092 0.481174,-0.176199 0.847442,-0.199238 1.064533,-0.06694 1.928061,0.40451 2.391591,1.30569 0.168166,0.326965 0.188376,0.420322 0.187087,0.864611 -5.02e-4,0.625776 -0.148297,0.991266 -0.577946,1.441753 -0.168642,0.176811 -3.241908,2.745977 -6.829469,5.709255 -7.325562,6.0508 -6.884872,5.72749 -7.843694,5.75447 -0.338125,0.009 -0.641652,-0.0126 -0.790262,-0.0576 z"
       id="path13-2-9" /><path
       d="m 33.943147,94.043382 h 7.851199 a 0.31511083,0.30586154 0 0 1 0.314154,0.30494 v 8.505158 c -0.01422,0.23769 -0.33029,0.24322 -0.671975,0.22848 h -7.609166 c -0.47267,0 -0.858968,0.37496 -0.858968,0.83374 0,0.4588 0.386298,0.83375 0.858968,0.83375 h 7.609166 v -0.88718 H 42.1085 v 1.12764 c 0,0.20544 -0.172733,0.37311 -0.384391,0.37311 h -7.863533 c -0.850415,7.2e-4 -1.546132,-0.67437 -1.546132,-1.49983 v -8.238909 c 0,-0.869678 0.73273,-1.580899 1.628703,-1.580899 z m 0.302774,1.234501 h 0.271454 c 0.13857,0 0.25246,0.08936 0.25246,0.198074 v 6.215803 c 0,0.10871 -0.11389,0.19807 -0.25246,0.19807 h -0.271454 c -0.138571,0 -0.252468,-0.0894 -0.252468,-0.19807 v -6.215803 c 7.11e-4,-0.109631 0.113897,-0.198074 0.252468,-0.198074 z"
       fill-rule="evenodd"
       clip-rule="evenodd"
       id="path20-1"
       style="fill:#ffffff;stroke-width:0.0935094" /></g></svg>
