<svg version="1.1" id="Layer_1" xmlns="http://www.w3.org/2000/svg" xmlns:xlink="http://www.w3.org/1999/xlink" x="0px" y="0px"
	 width="100%" viewBox="0 0 936 249" enable-background="new 0 0 936 249" xml:space="preserve">
<path fill="#FFFFFF" opacity="1.000000" stroke="none" 
	d="
M673.000000,250.000000 
	C448.666656,250.000000 224.833328,250.000000 1.000000,250.000000 
	C1.000000,167.000000 1.000000,84.000000 1.000000,1.000000 
	C313.000000,1.000000 625.000000,1.000000 937.000000,1.000000 
	C937.000000,84.000000 937.000000,167.000000 937.000000,250.000000 
	C849.166687,250.000000 761.333313,250.000000 673.000000,250.000000 
M660.500000,241.000717 
	C743.985718,241.000717 827.471497,241.023682 910.957153,240.941345 
	C915.765137,240.936600 920.653259,240.781647 924.625549,236.973495 
	C928.625549,233.138962 928.912598,228.249390 928.930115,223.445847 
	C929.060059,187.785568 929.000671,152.124619 929.000671,116.463867 
	C929.000671,86.468849 929.041870,56.473724 928.966248,26.478895 
	C928.950867,20.391375 927.755493,14.452458 921.290588,11.951846 
	C917.912598,10.645276 914.043457,10.076157 910.395935,10.075131 
	C616.778015,9.992624 323.160095,9.999246 29.542170,9.999249 
	C28.875614,9.999249 28.204390,9.947449 27.543194,10.006983 
	C15.337561,11.105992 11.207442,14.325397 11.148890,26.555370 
	C10.832972,92.542908 10.959529,158.532822 11.078593,224.521652 
	C11.087632,229.531387 11.565023,235.196747 16.639910,237.851120 
	C20.202642,239.714584 24.586613,240.873779 28.604830,240.876465 
	C238.903152,241.017273 449.201569,241.000717 660.500000,241.000717 
z"/>
<path fill="#09046E" opacity="1.000000" stroke="none" 
	d="
M660.000000,241.000717 
	C449.201569,241.000717 238.903152,241.017273 28.604830,240.876465 
	C24.586613,240.873779 20.202642,239.714584 16.639910,237.851120 
	C11.565023,235.196747 11.087632,229.531387 11.078593,224.521652 
	C10.959529,158.532822 10.832972,92.542908 11.148890,26.555370 
	C11.207442,14.325397 15.337561,11.105992 27.543194,10.006983 
	C28.204390,9.947449 28.875614,9.999249 29.542170,9.999249 
	C323.160095,9.999246 616.778015,9.992624 910.395935,10.075131 
	C914.043457,10.076157 917.912598,10.645276 921.290588,11.951846 
	C927.755493,14.452458 928.950867,20.391375 928.966248,26.478895 
	C929.041870,56.473724 929.000671,86.468849 929.000671,116.463867 
	C929.000671,152.124619 929.060059,187.785568 928.930115,223.445847 
	C928.912598,228.249390 928.625549,233.138962 924.625549,236.973495 
	C920.653259,240.781647 915.765137,240.936600 910.957153,240.941345 
	C827.471497,241.023682 743.985718,241.000717 660.000000,241.000717 
M288.071747,68.080078 
	C278.402496,65.109688 270.590637,68.064041 264.086334,75.994873 
	C260.801605,70.398636 256.217377,66.470093 249.883011,67.178230 
	C244.383942,67.792999 239.067078,70.037605 233.577927,71.587822 
	C233.527725,71.180099 233.351593,69.749725 233.176743,68.329674 
	C228.841705,68.329674 224.791183,68.329674 220.809235,68.329674 
	C220.809235,85.381500 220.809235,102.087807 220.809235,118.759262 
	C225.158600,118.759262 229.096283,118.759262 233.441360,118.759262 
	C233.441360,111.871742 233.289169,105.226013 233.497162,98.591560 
	C233.626587,94.462830 233.827682,90.228905 234.852432,86.263329 
	C236.088562,81.479744 240.620102,78.620384 245.005020,79.040001 
	C250.088959,79.526527 252.025894,83.092461 252.626190,87.525963 
	C253.048492,90.644806 253.046432,93.832855 253.071976,96.991318 
	C253.130707,104.253990 253.090607,111.517456 253.090607,118.772980 
	C257.725281,118.772980 261.664124,118.772980 266.059113,118.772980 
	C266.059113,111.255234 265.880676,103.962479 266.132538,96.684608 
	C266.263275,92.906975 266.698822,89.013161 267.818634,85.428604 
	C269.212006,80.968307 274.300659,78.247536 278.516876,79.091370 
	C283.191193,80.026886 284.974152,83.336182 285.203033,87.767052 
	C285.366089,90.923546 285.619141,94.079803 285.648865,97.237892 
	C285.716095,104.379776 285.670013,111.522728 285.670013,118.685951 
	C290.173218,118.685951 294.242645,118.685951 298.223145,118.685951 
	C298.223145,106.398705 298.317017,94.437935 298.186035,82.479622 
	C298.113586,75.865562 294.810913,71.158859 288.071747,68.080078 
M595.721680,53.585575 
	C586.119141,48.209675 575.730164,50.474354 565.360535,50.031433 
	C565.360535,73.178650 565.360535,95.874458 565.360535,118.858421 
	C573.731140,118.858421 581.890869,119.407646 589.946472,118.726532 
	C601.327820,117.764229 608.504944,109.279167 608.463257,98.454651 
	C608.431274,90.149246 603.781555,84.979271 597.114014,81.084381 
	C606.247498,70.796150 605.919373,61.916393 595.721680,53.585575 
M193.712463,70.755127 
	C192.213242,66.888817 190.703400,63.026596 189.216965,59.155376 
	C185.664673,49.903931 185.665619,50.082504 175.799210,49.891396 
	C172.523804,49.827957 171.172867,51.018829 170.123169,53.867622 
	C165.134338,67.406998 159.991562,80.889801 154.875183,94.381966 
	C151.833359,102.403442 148.738922,110.404968 145.441437,119.006821 
	C149.280060,119.006821 152.415985,118.802994 155.511948,119.067184 
	C158.310562,119.306000 160.123581,118.430855 160.539154,115.648788 
	C162.132828,104.979446 168.812729,102.263039 178.436768,104.003250 
	C178.597824,104.032372 178.768890,104.002686 178.935074,104.007523 
	C183.401672,104.137405 188.723526,102.837280 192.071960,104.838676 
	C194.896088,106.526680 195.299118,112.108727 197.048874,115.838097 
	C197.639175,117.096260 198.992722,118.740669 200.136230,118.858177 
	C203.866928,119.241577 207.661652,119.001854 211.942490,119.001854 
	C205.797089,102.789612 199.866684,87.144516 193.712463,70.755127 
M320.773987,116.932274 
	C330.272675,122.248703 339.171478,120.629265 347.633331,114.040222 
	C347.868591,116.006226 348.036469,117.409149 348.177917,118.591347 
	C352.559082,118.591347 356.608917,118.591347 360.565765,118.591347 
	C360.565765,101.588593 360.565765,85.005356 360.565765,68.263504 
	C356.238647,68.263504 352.182251,68.263504 348.158295,68.263504 
	C347.960052,69.924309 347.794586,71.310646 347.611877,72.841179 
	C331.002655,62.535534 314.953705,67.337151 309.510712,83.909599 
	C305.394897,96.441109 309.296356,108.408592 320.773987,116.932274 
M767.880310,74.347168 
	C763.818665,78.844681 759.756958,83.342201 754.788818,88.843483 
	C754.788818,74.448441 754.788818,61.414513 754.788818,48.335060 
	C750.210388,48.335060 746.158447,48.335060 741.903992,48.335060 
	C741.903992,60.323879 741.903992,71.969933 741.903992,83.615982 
	C741.903992,95.356461 741.903992,107.096931 741.903992,118.720154 
	C746.577942,118.720154 750.505798,118.720154 755.111816,118.720154 
	C755.111816,111.332329 755.111816,104.212334 755.111816,96.049919 
	C761.967346,103.449142 767.918884,109.952415 773.986145,116.345833 
	C775.049622,117.466423 776.551086,118.776062 777.932983,118.878151 
	C782.327637,119.202782 786.761292,118.998329 792.243347,118.998329 
	C783.659485,109.696602 775.812805,101.193657 767.810608,92.522209 
	C774.930420,84.536034 781.949768,76.662498 789.684631,67.986382 
	C781.425232,68.622871 773.265991,65.050423 767.880310,74.347168 
M645.297424,120.001183 
	C660.704224,118.520164 670.694458,107.201111 670.158569,91.833038 
	C669.700928,78.706131 658.191467,67.397423 644.882507,66.997673 
	C629.902649,66.547729 617.400513,77.925583 617.097351,92.284119 
	C616.756592,108.422546 628.017761,119.858353 645.297424,120.001183 
M678.098083,95.273872 
	C679.822510,111.238899 692.285034,121.550583 707.888550,119.922852 
	C722.476257,118.401093 732.642029,105.148598 731.039917,89.741737 
	C729.655273,76.426338 716.688416,66.178833 702.287476,67.019218 
	C688.680664,67.813248 678.169861,79.703613 678.098083,95.273872 
M438.818359,119.958374 
	C439.982910,119.974609 441.147980,120.020927 442.311981,120.002419 
	C453.662201,119.821907 463.549072,112.482689 467.029297,101.666748 
	C470.507050,90.858681 466.726532,79.029083 457.636963,72.276947 
	C448.331421,65.364319 435.747437,65.141792 426.483551,71.756493 
	C417.317474,78.301331 413.468292,87.346451 415.522644,98.254219 
	C417.822235,110.464325 425.723846,117.601700 438.818359,119.958374 
M498.606232,68.882401 
	C496.490692,70.072144 494.375183,71.261887 492.186157,72.492966 
	C491.888275,70.837379 491.641266,69.464424 491.428558,68.282120 
	C487.065796,68.282120 483.137543,68.282120 479.214264,68.282120 
	C479.214264,85.287697 479.214264,102.000237 479.214264,118.596230 
	C483.576050,118.596230 487.611176,118.596230 491.926819,118.596230 
	C491.926819,109.539703 491.700775,100.885536 492.049744,92.254623 
	C492.171326,89.247528 493.199463,85.994965 494.731873,83.395988 
	C496.809174,79.872887 500.486786,78.276573 504.627045,79.212349 
	C508.926880,80.184196 510.933350,83.381355 511.045258,87.623032 
	C511.260284,95.773331 511.303986,103.928253 511.404358,112.081429 
	C511.431915,114.319221 511.408539,116.557648 511.408539,118.667450 
	C516.128784,118.667450 520.044128,118.667450 523.887878,118.667450 
	C524.015198,118.005852 524.130310,117.685127 524.130920,117.364182 
	C524.151001,107.042854 524.191895,96.721413 524.163208,86.400185 
	C524.120239,70.920296 514.181641,63.783836 498.606232,68.882401 
M376.676208,79.006470 
	C381.067413,79.006470 385.458618,79.006470 390.608917,79.006470 
	C382.841125,92.745705 375.554138,105.634567 368.129761,118.766403 
	C382.166412,118.766403 395.446045,118.766403 408.882874,118.766403 
	C408.882874,115.137276 408.882874,111.752441 408.882874,107.860260 
	C401.923676,107.860260 395.232056,107.860260 387.971619,107.860260 
	C395.603455,94.318550 402.874847,81.416458 410.241577,68.345154 
	C396.884399,68.345154 384.310455,68.345154 371.652100,68.345154 
	C371.652100,71.971100 371.652100,75.241264 371.652100,78.767677 
	C373.160431,78.855904 374.447388,78.931175 376.676208,79.006470 
M368.731598,145.609695 
	C368.731598,160.321991 368.731598,175.034302 368.731598,189.948837 
	C374.753235,189.948837 380.056732,190.057617 385.354340,189.926483 
	C396.830688,189.642410 404.131073,183.791046 406.486176,172.653458 
	C409.056152,160.499802 404.267944,144.385406 387.671753,142.446518 
	C382.086731,141.794037 376.385742,142.032043 370.741699,142.120132 
	C370.059998,142.130768 369.403442,143.754089 368.731598,145.609695 
M794.093567,150.558060 
	C794.093567,163.642609 794.093567,176.727173 794.093567,189.726852 
	C797.556519,189.726852 800.317810,189.726852 803.625977,189.726852 
	C803.625977,183.437881 803.625977,177.424179 803.625977,171.410461 
	C806.842529,175.163589 809.091431,179.139603 811.257263,183.160339 
	C815.440796,190.926712 815.675415,191.056076 824.942566,189.369949 
	C821.294678,182.669098 817.687256,176.042618 814.009583,169.287003 
	C815.039307,168.680008 815.758545,168.288620 816.444946,167.846268 
	C821.858765,164.357498 824.064575,159.173599 822.838074,152.853439 
	C821.729004,147.138306 818.020813,143.173615 811.617004,142.467316 
	C805.937805,141.840912 800.134888,142.335953 794.093567,142.335953 
	C794.093567,144.967255 794.093567,147.273743 794.093567,150.558060 
M591.200928,179.353027 
	C591.998169,180.808701 592.802856,182.260345 593.591431,183.720688 
	C597.446472,190.859116 598.279785,191.215744 606.893616,189.249985 
	C603.262695,182.595123 599.657043,175.986603 595.995239,169.275162 
	C597.109680,168.623108 597.832947,168.235779 598.519897,167.792282 
	C603.871704,164.337387 606.180603,159.052460 604.794312,152.794312 
	C603.523499,147.057297 600.036194,143.082016 594.054993,142.582336 
	C588.200684,142.093246 582.273560,142.475876 576.433472,142.475876 
	C576.433472,158.380508 576.433472,174.081802 576.433472,189.745148 
	C579.535706,189.745148 582.294861,189.745148 585.583191,189.745148 
	C585.583191,183.466080 585.583191,177.441833 585.583191,171.417587 
	C585.895142,171.337570 586.207092,171.257553 586.519043,171.177536 
	C587.985779,173.674591 589.452576,176.171646 591.200928,179.353027 
M123.256165,174.140015 
	C125.031631,177.327850 126.836266,180.499847 128.576630,183.706726 
	C132.466751,190.874924 133.143448,191.177887 141.900391,189.271347 
	C138.268814,182.609482 134.665024,175.998581 131.001160,169.277466 
	C132.089111,168.639633 132.810959,168.251205 133.497681,167.808334 
	C138.864883,164.346985 141.176239,159.091324 139.799728,152.824554 
	C138.540436,147.091309 135.075195,143.093918 129.086716,142.593887 
	C123.230659,142.104889 117.301834,142.487457 111.418503,142.487457 
	C111.418503,158.350220 111.418503,174.048553 111.418503,189.766541 
	C114.507637,189.766541 117.269257,189.766541 120.546875,189.766541 
	C120.546875,183.496628 120.546875,177.460052 120.546875,169.866882 
	C121.919670,171.903137 122.433434,172.665192 123.256165,174.140015 
M624.090759,155.474731 
	C619.751953,166.847183 615.413208,178.219635 610.915283,190.009308 
	C613.622986,190.009308 615.663208,190.276749 617.586670,189.918274 
	C618.941101,189.665863 621.111389,188.714508 621.251282,187.815842 
	C622.499207,179.799576 627.952576,179.330338 634.294312,179.975525 
	C636.436829,180.193497 638.706909,179.643875 640.757019,180.128754 
	C642.335510,180.502060 644.346741,181.620117 644.985291,182.966705 
	C648.577454,190.541168 648.455505,190.598999 657.430908,189.610657 
	C652.249268,176.222458 647.097534,162.930359 641.960876,149.632446 
	C638.812805,141.482605 638.823181,141.477921 629.890320,142.158340 
	C629.729553,142.170578 629.574768,142.260986 629.206909,142.386917 
	C627.621399,146.415878 625.982666,150.580109 624.090759,155.474731 
M453.845123,177.598709 
	C449.597717,166.772507 445.091766,156.037415 441.229706,145.075455 
	C439.677185,140.668823 436.621033,142.415131 433.970673,141.988220 
	C431.243408,141.548889 429.919678,142.628510 428.926483,145.339355 
	C424.299622,157.967880 419.387024,170.491730 414.577606,183.053406 
	C413.741302,185.237747 412.910004,187.424011 412.005676,189.794739 
	C420.945465,190.253036 420.841400,190.202484 424.505280,182.660645 
	C425.101776,181.432861 427.034973,180.230179 428.430359,180.129974 
	C432.903259,179.808746 437.434937,179.764191 441.897705,180.149109 
	C443.381317,180.277100 445.387238,181.717087 446.023285,183.083694 
	C449.604004,190.777206 449.486389,190.831955 458.369232,189.483276 
	C456.913574,185.729553 455.481934,182.037796 453.845123,177.598709 
M251.786102,172.151398 
	C249.542419,177.965042 247.298737,183.778671 244.894058,190.009476 
	C247.520737,190.009476 249.556290,190.266129 251.484833,189.922379 
	C252.849594,189.679108 255.054443,188.786285 255.200165,187.904968 
	C256.498383,180.053009 261.725494,179.186050 268.191162,179.972900 
	C270.160187,180.212524 272.210938,180.221390 274.174683,179.961365 
	C277.246857,179.554581 278.509613,180.955734 279.528961,183.701035 
	C282.212555,190.928757 283.162598,191.264099 291.307648,189.205887 
	C285.524109,174.334167 279.639832,159.530350 274.050079,144.616135 
	C272.519409,140.532135 269.461121,142.431931 266.973145,142.013687 
	C264.634918,141.620605 263.026947,142.204865 262.074860,144.856537 
	C258.877167,153.762604 255.385681,162.563156 251.786102,172.151398 
M707.445190,182.838455 
	C705.986328,180.288589 704.527466,177.738708 703.031128,175.123322 
	C691.478516,183.620010 681.921143,183.997437 675.254333,176.859894 
	C670.000671,171.235275 669.818604,161.689026 674.852356,155.781509 
	C681.538757,147.934265 690.643738,148.105957 702.955200,156.696823 
	C704.720703,154.685745 706.567505,152.581985 708.677429,150.178574 
	C706.786438,148.632996 704.987976,146.906494 702.948853,145.538803 
	C691.219727,137.671768 674.799683,140.268387 666.726746,151.185547 
	C659.071350,161.538040 661.018616,176.871292 670.915222,185.462494 
	C678.833069,192.336029 695.802856,194.270264 707.445190,182.838455 
M736.320435,145.648315 
	C733.275330,149.440063 730.230164,153.231812 727.185059,157.023575 
	C726.837280,156.871231 726.489502,156.718887 726.141724,156.566559 
	C726.141724,151.844223 726.141724,147.121902 726.141724,142.368484 
	C722.784729,142.368484 719.918579,142.368484 717.137207,142.368484 
	C717.137207,158.350357 717.137207,173.956909 717.137207,189.644104 
	C720.249878,189.644104 723.119507,189.644104 726.322876,189.644104 
	C726.322876,183.040314 726.322876,176.793320 726.322876,168.986588 
	C730.602905,174.957642 734.030945,179.736938 737.455688,184.518661 
	C741.857849,190.665192 743.687866,191.287811 751.543213,189.152039 
	C745.518250,180.553131 739.540527,172.021667 733.579834,163.514511 
	C739.192810,156.329575 744.553223,149.467941 750.712280,141.584015 
	C745.135620,142.952530 739.973145,139.633240 736.320435,145.648315 
M158.936020,156.414078 
	C158.936020,154.672226 158.936020,152.930359 158.936020,150.780594 
	C165.091919,150.780594 170.521362,150.780594 175.968140,150.780594 
	C175.968140,147.744339 175.968140,145.130051 175.968140,142.326813 
	C167.231308,142.326813 158.688828,142.326813 150.286377,142.326813 
	C150.286377,158.378082 150.286377,174.099838 150.286377,189.681732 
	C159.087936,189.681732 167.512955,189.681732 175.969879,189.681732 
	C175.969879,186.745239 175.969879,184.131287 175.969879,180.929504 
	C170.243027,180.929504 164.689819,180.929504 159.312225,180.929504 
	C159.312225,176.273285 159.312225,172.214828 159.312225,167.753754 
	C165.117523,167.753754 170.548035,167.753754 175.954163,167.753754 
	C175.954163,164.721802 175.954163,162.107315 175.954163,158.999573 
	C171.474487,158.999573 167.177887,159.127426 162.897034,158.924042 
	C161.560272,158.860519 160.266022,157.902664 158.936020,156.414078 
M218.624908,190.000290 
	C225.731155,190.000290 232.837402,190.000290 239.970917,190.000290 
	C239.970917,186.746475 239.970917,184.132797 239.970917,180.932159 
	C234.245911,180.932159 228.693268,180.932159 223.309525,180.932159 
	C223.309525,176.277481 223.309525,172.219543 223.309525,167.759338 
	C229.111526,167.759338 234.541245,167.759338 239.958557,167.759338 
	C239.958557,164.728424 239.958557,162.114258 239.958557,158.921143 
	C234.217743,158.921143 228.652664,158.921143 223.127472,158.921143 
	C223.127472,156.053879 223.127472,153.770126 223.127472,150.910248 
	C228.865204,150.910248 234.431274,150.910248 239.950256,150.910248 
	C239.950256,147.714890 239.950256,145.100571 239.950256,142.340790 
	C231.196289,142.340790 222.655197,142.340790 213.914062,142.340790 
	C213.914062,157.328857 214.002579,171.977753 213.842682,186.623947 
	C213.808914,189.717911 215.082672,190.344528 218.624908,190.000290 
M333.913208,147.599350 
	C333.913208,161.672791 333.913208,175.746246 333.913208,189.686340 
	C343.078857,189.686340 351.502441,189.686340 359.780304,189.686340 
	C359.780304,186.642761 359.780304,183.921509 359.780304,180.786255 
	C353.988922,180.786255 348.571167,180.786255 343.304077,180.786255 
	C343.304077,176.287491 343.304077,172.229828 343.304077,167.769089 
	C349.099243,167.769089 354.528564,167.769089 359.964722,167.769089 
	C359.964722,164.738266 359.964722,162.124283 359.964722,158.931244 
	C354.226929,158.931244 348.668335,158.931244 343.121094,158.931244 
	C343.121094,156.061401 343.121094,153.777740 343.121094,150.920853 
	C348.849091,150.920853 354.416351,150.920853 359.957123,150.920853 
	C359.957123,147.725861 359.957123,145.111710 359.957123,142.335419 
	C351.211182,142.335419 342.671051,142.335419 333.913239,142.335419 
	C333.913239,143.985855 333.913239,145.304489 333.913208,147.599350 
M505.704285,158.998291 
	C499.956116,157.912415 504.327148,153.874588 502.688080,150.937866 
	C508.892365,150.937866 514.322876,150.937866 519.870789,150.937866 
	C519.870789,147.792877 519.870789,145.075073 519.870789,142.240570 
	C511.165405,142.240570 502.750824,142.240570 493.913208,142.240570 
	C493.913208,150.262390 493.913208,158.050003 493.913208,165.837616 
	C493.913208,173.773453 493.913208,181.709290 493.913208,189.763763 
	C502.885712,189.763763 511.303314,189.763763 519.878174,189.763763 
	C519.878174,186.804764 519.878174,184.087402 519.878174,180.947754 
	C514.186218,180.947754 508.762726,180.947754 503.212952,180.947754 
	C503.212952,176.459396 503.212952,172.403198 503.212952,167.929474 
	C508.906616,167.929474 514.333252,167.929474 519.865295,167.929474 
	C519.865295,164.783264 519.865295,162.065216 519.865295,158.999512 
	C515.275513,158.999512 510.971954,158.999512 505.704285,158.998291 
M765.573914,141.999710 
	C763.465027,141.999710 761.356140,141.999710 758.913208,141.999710 
	C758.913208,150.350174 758.913208,158.147705 758.913208,165.945251 
	C758.913208,173.870773 758.913208,181.796280 758.913208,189.732147 
	C767.965881,189.732147 776.385132,189.732147 784.838501,189.732147 
	C784.838501,186.737701 784.838501,184.018921 784.838501,180.882736 
	C779.104797,180.882736 773.681702,180.882736 768.249023,180.882736 
	C768.249023,176.389725 768.249023,172.333298 768.249023,167.866455 
	C773.981812,167.866455 779.408020,167.866455 784.827942,167.866455 
	C784.827942,164.719955 784.827942,162.000824 784.827942,158.871643 
	C779.080200,158.871643 773.654663,158.871643 768.254639,158.871643 
	C768.254639,156.046387 768.254639,153.654327 768.254639,150.856918 
	C773.993591,150.856918 779.420349,150.856918 784.821167,150.856918 
	C784.821167,147.706009 784.821167,144.988541 784.821167,141.999710 
	C778.510864,141.999710 772.535461,141.999710 765.573914,141.999710 
M308.045868,168.445358 
	C309.948639,170.056976 312.359650,171.355865 313.601532,173.374130 
	C314.695557,175.152130 315.508514,178.950424 314.624054,179.696106 
	C313.012207,181.055115 309.848145,181.586960 307.710785,181.024124 
	C305.564911,180.459076 303.881439,178.138062 301.737305,176.374374 
	C299.547485,177.677689 297.175751,179.089294 294.844055,180.477036 
	C298.317841,188.101807 303.693024,191.413010 311.508270,191.004211 
	C317.520599,190.689728 322.415222,187.331146 324.161713,182.106659 
	C326.598083,174.818558 323.233368,169.581696 317.921021,165.088257 
	C314.618286,162.294601 311.148010,159.660553 308.140015,156.577255 
	C307.059387,155.469574 307.111969,153.256332 306.647369,151.547653 
	C308.591187,151.302429 310.714813,150.457672 312.430695,150.972351 
	C314.333069,151.542953 315.862976,153.355453 317.654266,154.701736 
	C319.705475,152.828979 321.772491,150.941818 324.805267,148.172928 
	C320.636780,145.646271 317.290924,142.863678 313.442139,141.464386 
	C307.843903,139.429077 301.258820,142.389374 298.283295,147.315018 
	C295.635254,151.698563 296.553070,157.294525 300.897705,161.904694 
	C302.944946,164.077042 305.284180,165.974258 308.045868,168.445358 
M469.206116,157.571396 
	C469.206116,168.314224 469.206116,179.057053 469.206116,189.614990 
	C472.866730,189.614990 475.756042,189.614990 478.984009,189.614990 
	C478.984009,176.623016 478.984009,164.032715 478.984009,150.847931 
	C482.033966,150.847931 484.735718,150.847931 487.431335,150.847931 
	C487.431335,147.639999 487.431335,145.042709 487.431335,142.327911 
	C478.461792,142.327911 469.756653,142.327911 461.275726,142.327911 
	C461.275726,145.417206 461.275726,148.151642 461.275726,150.848938 
	C464.093201,150.998978 466.524078,151.128418 469.206146,151.271240 
	C469.206146,153.301758 469.206146,154.948441 469.206116,157.571396 
M566.312500,151.019669 
	C573.450806,150.135086 567.901672,145.164688 569.905273,142.206299 
	C560.513489,142.206299 551.928894,142.206299 543.139648,142.206299 
	C543.139648,145.160797 543.139648,147.887421 543.139648,151.179001 
	C545.933594,151.179001 548.486511,151.179001 551.375977,151.179001 
	C551.375977,164.352036 551.375977,176.961166 551.375977,189.741989 
	C554.626587,189.741989 557.524170,189.741989 560.946594,189.741989 
	C560.946594,176.751480 560.946594,164.029114 560.946594,151.020004 
	C562.780090,151.020004 564.086609,151.020004 566.312500,151.019669 
M206.859344,186.416016 
	C206.859344,184.671799 206.859344,182.927582 206.859344,180.845276 
	C202.171585,180.845276 198.236099,180.845276 193.829224,180.845276 
	C193.829224,167.811005 193.829224,155.113892 193.829224,142.302673 
	C190.468018,142.302673 187.600967,142.302673 184.369110,142.302673 
	C184.369110,150.409805 184.369110,158.189728 184.369110,165.969650 
	C184.369110,173.892868 184.369110,181.816071 184.369110,190.026672 
	C191.286026,190.026672 197.586411,190.147064 203.872925,189.905991 
	C204.898880,189.866638 205.863632,188.231110 206.859344,186.416016 
z"/>
<path fill="#F8A82C" opacity="1.000000" stroke="none" 
	d="
M288.440369,68.221886 
	C294.810913,71.158859 298.113586,75.865562 298.186035,82.479622 
	C298.317017,94.437935 298.223145,106.398705 298.223145,118.685951 
	C294.242645,118.685951 290.173218,118.685951 285.670013,118.685951 
	C285.670013,111.522728 285.716095,104.379776 285.648865,97.237892 
	C285.619141,94.079803 285.366089,90.923546 285.203033,87.767052 
	C284.974152,83.336182 283.191193,80.026886 278.516876,79.091370 
	C274.300659,78.247536 269.212006,80.968307 267.818634,85.428604 
	C266.698822,89.013161 266.263275,92.906975 266.132538,96.684608 
	C265.880676,103.962479 266.059113,111.255234 266.059113,118.772980 
	C261.664124,118.772980 257.725281,118.772980 253.090607,118.772980 
	C253.090607,111.517456 253.130707,104.253990 253.071976,96.991318 
	C253.046432,93.832855 253.048492,90.644806 252.626190,87.525963 
	C252.025894,83.092461 250.088959,79.526527 245.005020,79.040001 
	C240.620102,78.620384 236.088562,81.479744 234.852432,86.263329 
	C233.827682,90.228905 233.626587,94.462830 233.497162,98.591560 
	C233.289169,105.226013 233.441360,111.871742 233.441360,118.759262 
	C229.096283,118.759262 225.158600,118.759262 220.809235,118.759262 
	C220.809235,102.087807 220.809235,85.381500 220.809235,68.329674 
	C224.791183,68.329674 228.841705,68.329674 233.176743,68.329674 
	C233.351593,69.749725 233.527725,71.180099 233.577927,71.587822 
	C239.067078,70.037605 244.383942,67.792999 249.883011,67.178230 
	C256.217377,66.470093 260.801605,70.398636 264.086334,75.994873 
	C270.590637,68.064041 278.402496,65.109688 288.440369,68.221886 
z"/>
<path fill="#FBAA2A" opacity="1.000000" stroke="none" 
	d="
M596.020325,53.807243 
	C605.919373,61.916393 606.247498,70.796150 597.114014,81.084381 
	C603.781555,84.979271 608.431274,90.149246 608.463257,98.454651 
	C608.504944,109.279167 601.327820,117.764229 589.946472,118.726532 
	C581.890869,119.407646 573.731140,118.858421 565.360535,118.858421 
	C565.360535,95.874458 565.360535,73.178650 565.360535,50.031433 
	C575.730164,50.474354 586.119141,48.209675 596.020325,53.807243 
M589.903076,90.204643 
	C586.220764,89.699081 582.538513,89.193527 578.635376,88.657654 
	C578.635376,94.940849 578.635376,100.337273 578.635376,105.712944 
	C581.757751,105.712944 584.601196,105.995895 587.362793,105.641617 
	C590.846619,105.194687 594.399780,104.376411 595.218445,100.043442 
	C596.024719,95.775597 594.554077,92.566826 589.903076,90.204643 
M590.762634,69.581078 
	C588.981750,63.695824 586.577209,62.439430 578.569153,63.380836 
	C578.569153,67.768166 578.569153,72.187416 578.569153,76.575966 
	C586.457397,77.604820 588.671021,76.444008 590.762634,69.581078 
z"/>
<path fill="#FBA92B" opacity="1.000000" stroke="none" 
	d="
M193.824371,71.127274 
	C199.866684,87.144516 205.797089,102.789612 211.942490,119.001854 
	C207.661652,119.001854 203.866928,119.241577 200.136230,118.858177 
	C198.992722,118.740669 197.639175,117.096260 197.048874,115.838097 
	C195.299118,112.108727 194.896088,106.526680 192.071960,104.838676 
	C188.723526,102.837280 183.401672,104.137405 178.935074,104.007523 
	C178.768890,104.002686 178.597824,104.032372 178.436768,104.003250 
	C168.812729,102.263039 162.132828,104.979446 160.539154,115.648788 
	C160.123581,118.430855 158.310562,119.306000 155.511948,119.067184 
	C152.415985,118.802994 149.280060,119.006821 145.441437,119.006821 
	C148.738922,110.404968 151.833359,102.403442 154.875183,94.381966 
	C159.991562,80.889801 165.134338,67.406998 170.123169,53.867622 
	C171.172867,51.018829 172.523804,49.827957 175.799210,49.891396 
	C185.665619,50.082504 185.664673,49.903931 189.216965,59.155376 
	C190.703400,63.026596 192.213242,66.888817 193.824371,71.127274 
M186.943527,89.904495 
	C184.372543,82.961906 181.801575,76.019325 178.801804,67.918823 
	C175.669815,76.326164 173.027359,83.419395 170.299850,90.740929 
	C176.133850,90.740929 181.435745,90.740929 186.943527,89.904495 
z"/>
<path fill="#FAA82C" opacity="1.000000" stroke="none" 
	d="
M320.459351,116.730408 
	C309.296356,108.408592 305.394897,96.441109 309.510712,83.909599 
	C314.953705,67.337151 331.002655,62.535534 347.611877,72.841179 
	C347.794586,71.310646 347.960052,69.924309 348.158295,68.263504 
	C352.182251,68.263504 356.238647,68.263504 360.565765,68.263504 
	C360.565765,85.005356 360.565765,101.588593 360.565765,118.591347 
	C356.608917,118.591347 352.559082,118.591347 348.177917,118.591347 
	C348.036469,117.409149 347.868591,116.006226 347.633331,114.040222 
	C339.171478,120.629265 330.272675,122.248703 320.459351,116.730408 
M348.051788,90.036972 
	C346.031036,82.505928 340.926239,78.565086 333.770050,79.011642 
	C327.141541,79.425255 321.755005,84.721077 321.083405,91.484627 
	C320.329834,99.073441 324.183716,105.346169 330.891449,107.448685 
	C340.864166,110.574593 348.735901,103.021164 348.051788,90.036972 
z"/>
<path fill="#FBA82C" opacity="1.000000" stroke="none" 
	d="
M768.122437,74.081909 
	C773.265991,65.050423 781.425232,68.622871 789.684631,67.986382 
	C781.949768,76.662498 774.930420,84.536034 767.810608,92.522209 
	C775.812805,101.193657 783.659485,109.696602 792.243347,118.998329 
	C786.761292,118.998329 782.327637,119.202782 777.932983,118.878151 
	C776.551086,118.776062 775.049622,117.466423 773.986145,116.345833 
	C767.918884,109.952415 761.967346,103.449142 755.111816,96.049919 
	C755.111816,104.212334 755.111816,111.332329 755.111816,118.720154 
	C750.505798,118.720154 746.577942,118.720154 741.903992,118.720154 
	C741.903992,107.096931 741.903992,95.356461 741.903992,83.615982 
	C741.903992,71.969933 741.903992,60.323879 741.903992,48.335060 
	C746.158447,48.335060 750.210388,48.335060 754.788818,48.335060 
	C754.788818,61.414513 754.788818,74.448441 754.788818,88.843483 
	C759.756958,83.342201 763.818665,78.844681 768.122437,74.081909 
z"/>
<path fill="#FAA92B" opacity="1.000000" stroke="none" 
	d="
M644.847168,120.004097 
	C628.017761,119.858353 616.756592,108.422546 617.097351,92.284119 
	C617.400513,77.925583 629.902649,66.547729 644.882507,66.997673 
	C658.191467,67.397423 669.700928,78.706131 670.158569,91.833038 
	C670.694458,107.201111 660.704224,118.520164 644.847168,120.004097 
M649.027893,106.913582 
	C659.870789,102.791130 659.544983,85.982162 651.101929,81.039734 
	C645.526794,77.776100 638.728210,78.415367 634.208191,82.910561 
	C629.495422,87.597435 628.583069,95.213501 632.004700,101.303581 
	C635.231750,107.047310 641.115051,109.151604 649.027893,106.913582 
z"/>
<path fill="#FAA92B" opacity="1.000000" stroke="none" 
	d="
M678.097473,94.829407 
	C678.169861,79.703613 688.680664,67.813248 702.287476,67.019218 
	C716.688416,66.178833 729.655273,76.426338 731.039917,89.741737 
	C732.642029,105.148598 722.476257,118.401093 707.888550,119.922852 
	C692.285034,121.550583 679.822510,111.238899 678.097473,94.829407 
M695.319946,82.798645 
	C688.199646,91.341797 690.255371,103.398148 699.446594,107.000320 
	C705.660767,109.435730 712.561340,107.289192 716.076477,101.827377 
	C719.772949,96.083618 718.806824,87.047203 714.011230,82.510994 
	C709.124634,77.888718 702.039368,77.798660 695.319946,82.798645 
z"/>
<path fill="#FAA92B" opacity="1.000000" stroke="none" 
	d="
M438.377289,119.940758 
	C425.723846,117.601700 417.822235,110.464325 415.522644,98.254219 
	C413.468292,87.346451 417.317474,78.301331 426.483551,71.756493 
	C435.747437,65.141792 448.331421,65.364319 457.636963,72.276947 
	C466.726532,79.029083 470.507050,90.858681 467.029297,101.666748 
	C463.549072,112.482689 453.662201,119.821907 442.311981,120.002419 
	C441.147980,120.020927 439.982910,119.974609 438.377289,119.940758 
M438.311371,79.361572 
	C430.586182,82.248199 426.806519,88.636208 428.186157,96.474236 
	C429.368774,103.193153 434.572388,107.796204 441.209747,107.994759 
	C449.605103,108.245888 455.333405,102.070541 455.230469,92.879776 
	C455.127655,83.696342 449.211090,78.662529 438.311371,79.361572 
z"/>
<path fill="#FAA82C" opacity="1.000000" stroke="none" 
	d="
M498.949249,68.690018 
	C514.181641,63.783836 524.120239,70.920296 524.163208,86.400185 
	C524.191895,96.721413 524.151001,107.042854 524.130920,117.364182 
	C524.130310,117.685127 524.015198,118.005852 523.887878,118.667450 
	C520.044128,118.667450 516.128784,118.667450 511.408539,118.667450 
	C511.408539,116.557648 511.431915,114.319221 511.404358,112.081429 
	C511.303986,103.928253 511.260284,95.773331 511.045258,87.623032 
	C510.933350,83.381355 508.926880,80.184196 504.627045,79.212349 
	C500.486786,78.276573 496.809174,79.872887 494.731873,83.395988 
	C493.199463,85.994965 492.171326,89.247528 492.049744,92.254623 
	C491.700775,100.885536 491.926819,109.539703 491.926819,118.596230 
	C487.611176,118.596230 483.576050,118.596230 479.214264,118.596230 
	C479.214264,102.000237 479.214264,85.287697 479.214264,68.282120 
	C483.137543,68.282120 487.065796,68.282120 491.428558,68.282120 
	C491.641266,69.464424 491.888275,70.837379 492.186157,72.492966 
	C494.375183,71.261887 496.490692,70.072144 498.949249,68.690018 
z"/>
<path fill="#FBAA2B" opacity="1.000000" stroke="none" 
	d="
M376.205261,79.006454 
	C374.447388,78.931175 373.160431,78.855904 371.652100,78.767677 
	C371.652100,75.241264 371.652100,71.971100 371.652100,68.345154 
	C384.310455,68.345154 396.884399,68.345154 410.241577,68.345154 
	C402.874847,81.416458 395.603455,94.318550 387.971619,107.860260 
	C395.232056,107.860260 401.923676,107.860260 408.882874,107.860260 
	C408.882874,111.752441 408.882874,115.137276 408.882874,118.766403 
	C395.446045,118.766403 382.166412,118.766403 368.129761,118.766403 
	C375.554138,105.634567 382.841125,92.745705 390.608917,79.006470 
	C385.458618,79.006470 381.067413,79.006470 376.205261,79.006454 
z"/>
<path fill="#FBA72C" opacity="1.000000" stroke="none" 
	d="
M368.733398,145.119827 
	C369.403442,143.754089 370.059998,142.130768 370.741699,142.120132 
	C376.385742,142.032043 382.086731,141.794037 387.671753,142.446518 
	C404.267944,144.385406 409.056152,160.499802 406.486176,172.653458 
	C404.131073,183.791046 396.830688,189.642410 385.354340,189.926483 
	C380.056732,190.057617 374.753235,189.948837 368.731598,189.948837 
	C368.731598,175.034302 368.731598,160.321991 368.733398,145.119827 
M397.732330,165.672653 
	C395.967224,153.847778 389.780457,149.399185 378.144165,151.600433 
	C378.144165,161.298630 378.144165,170.996811 378.144165,180.660416 
	C392.060394,181.920532 396.634857,178.552200 397.732330,165.672653 
z"/>
<path fill="#F9A92B" opacity="1.000000" stroke="none" 
	d="
M794.093567,150.069153 
	C794.093567,147.273743 794.093567,144.967255 794.093567,142.335953 
	C800.134888,142.335953 805.937805,141.840912 811.617004,142.467316 
	C818.020813,143.173615 821.729004,147.138306 822.838074,152.853439 
	C824.064575,159.173599 821.858765,164.357498 816.444946,167.846268 
	C815.758545,168.288620 815.039307,168.680008 814.009583,169.287003 
	C817.687256,176.042618 821.294678,182.669098 824.942566,189.369949 
	C815.675415,191.056076 815.440796,190.926712 811.257263,183.160339 
	C809.091431,179.139603 806.842529,175.163589 803.625977,171.410461 
	C803.625977,177.424179 803.625977,183.437881 803.625977,189.726852 
	C800.317810,189.726852 797.556519,189.726852 794.093567,189.726852 
	C794.093567,176.727173 794.093567,163.642609 794.093567,150.069153 
M812.114807,152.236526 
	C809.343201,151.723236 806.571533,151.209946 803.302124,150.604462 
	C803.302124,153.123459 803.302124,154.591583 803.302124,156.059708 
	C803.302124,157.631027 803.302124,159.202332 803.302124,160.707092 
	C813.027832,161.458755 815.647339,159.044891 812.114807,152.236526 
z"/>
<path fill="#F9A92B" opacity="1.000000" stroke="none" 
	d="
M591.060120,179.010864 
	C589.452576,176.171646 587.985779,173.674591 586.519043,171.177536 
	C586.207092,171.257553 585.895142,171.337570 585.583191,171.417587 
	C585.583191,177.441833 585.583191,183.466080 585.583191,189.745148 
	C582.294861,189.745148 579.535706,189.745148 576.433472,189.745148 
	C576.433472,174.081802 576.433472,158.380508 576.433472,142.475876 
	C582.273560,142.475876 588.200684,142.093246 594.054993,142.582336 
	C600.036194,143.082016 603.523499,147.057297 604.794312,152.794312 
	C606.180603,159.052460 603.871704,164.337387 598.519897,167.792282 
	C597.832947,168.235779 597.109680,168.623108 595.995239,169.275162 
	C599.657043,175.986603 603.262695,182.595123 606.893616,189.249985 
	C598.279785,191.215744 597.446472,190.859116 593.591431,183.720688 
	C592.802856,182.260345 591.998169,180.808701 591.060120,179.010864 
M595.928467,154.856461 
	C593.792053,150.022812 589.715576,150.955734 585.575928,151.233902 
	C585.575928,154.514343 585.575928,157.582077 585.575928,160.616074 
	C593.311584,161.530167 594.870056,160.763565 595.928467,154.856461 
z"/>
<path fill="#F9A92B" opacity="1.000000" stroke="none" 
	d="
M123.101677,173.783630 
	C122.433434,172.665192 121.919670,171.903137 120.546875,169.866882 
	C120.546875,177.460052 120.546875,183.496628 120.546875,189.766541 
	C117.269257,189.766541 114.507637,189.766541 111.418503,189.766541 
	C111.418503,174.048553 111.418503,158.350220 111.418503,142.487457 
	C117.301834,142.487457 123.230659,142.104889 129.086716,142.593887 
	C135.075195,143.093918 138.540436,147.091309 139.799728,152.824554 
	C141.176239,159.091324 138.864883,164.346985 133.497681,167.808334 
	C132.810959,168.251205 132.089111,168.639633 131.001160,169.277466 
	C134.665024,175.998581 138.268814,182.609482 141.900391,189.271347 
	C133.143448,191.177887 132.466751,190.874924 128.576630,183.706726 
	C126.836266,180.499847 125.031631,177.327850 123.101677,173.783630 
M125.163376,150.990067 
	C123.709442,150.990067 122.255516,150.990067 120.563400,150.990067 
	C120.563400,154.480988 120.563400,157.545731 120.563400,160.838135 
	C124.653984,160.834442 129.217010,162.356750 130.822525,157.165604 
	C131.937912,153.559219 129.322098,151.761734 125.163376,150.990067 
z"/>
<path fill="#FAA82C" opacity="1.000000" stroke="none" 
	d="
M624.217285,155.109528 
	C625.982666,150.580109 627.621399,146.415878 629.206909,142.386917 
	C629.574768,142.260986 629.729553,142.170578 629.890320,142.158340 
	C638.823181,141.477921 638.812805,141.482605 641.960876,149.632446 
	C647.097534,162.930359 652.249268,176.222458 657.430908,189.610657 
	C648.455505,190.598999 648.577454,190.541168 644.985291,182.966705 
	C644.346741,181.620117 642.335510,180.502060 640.757019,180.128754 
	C638.706909,179.643875 636.436829,180.193497 634.294312,179.975525 
	C627.952576,179.330338 622.499207,179.799576 621.251282,187.815842 
	C621.111389,188.714508 618.941101,189.665863 617.586670,189.918274 
	C615.663208,190.276749 613.622986,190.009308 610.915283,190.009308 
	C615.413208,178.219635 619.751953,166.847183 624.217285,155.109528 
M638.858215,166.792023 
	C637.403442,163.134857 635.948608,159.477707 634.114685,154.867508 
	C631.849731,160.758652 629.984680,165.609467 628.031860,170.688675 
	C632.249084,170.688675 636.048889,170.688675 640.241272,170.688675 
	C639.777405,169.371918 639.457520,168.463745 638.858215,166.792023 
z"/>
<path fill="#FAA82C" opacity="1.000000" stroke="none" 
	d="
M453.947693,177.972382 
	C455.481934,182.037796 456.913574,185.729553 458.369232,189.483276 
	C449.486389,190.831955 449.604004,190.777206 446.023285,183.083694 
	C445.387238,181.717087 443.381317,180.277100 441.897705,180.149109 
	C437.434937,179.764191 432.903259,179.808746 428.430359,180.129974 
	C427.034973,180.230179 425.101776,181.432861 424.505280,182.660645 
	C420.841400,190.202484 420.945465,190.253036 412.005676,189.794739 
	C412.910004,187.424011 413.741302,185.237747 414.577606,183.053406 
	C419.387024,170.491730 424.299622,157.967880 428.926483,145.339355 
	C429.919678,142.628510 431.243408,141.548889 433.970673,141.988220 
	C436.621033,142.415131 439.677185,140.668823 441.229706,145.075455 
	C445.091766,156.037415 449.597717,166.772507 453.947693,177.972382 
M433.734375,171.007568 
	C436.112213,171.007568 438.490051,171.007568 441.436493,171.007568 
	C439.285889,165.440216 437.423492,160.618942 435.175476,154.799423 
	C432.918457,160.635452 431.001953,165.591064 428.980377,170.818298 
	C430.594910,170.897064 431.727112,170.952301 433.734375,171.007568 
z"/>
<path fill="#FAA82C" opacity="1.000000" stroke="none" 
	d="
M251.896362,171.777740 
	C255.385681,162.563156 258.877167,153.762604 262.074860,144.856537 
	C263.026947,142.204865 264.634918,141.620605 266.973145,142.013687 
	C269.461121,142.431931 272.519409,140.532135 274.050079,144.616135 
	C279.639832,159.530350 285.524109,174.334167 291.307648,189.205887 
	C283.162598,191.264099 282.212555,190.928757 279.528961,183.701035 
	C278.509613,180.955734 277.246857,179.554581 274.174683,179.961365 
	C272.210938,180.221390 270.160187,180.212524 268.191162,179.972900 
	C261.725494,179.186050 256.498383,180.053009 255.200165,187.904968 
	C255.054443,188.786285 252.849594,189.679108 251.484833,189.922379 
	C249.556290,190.266129 247.520737,190.009476 244.894058,190.009476 
	C247.298737,183.778671 249.542419,177.965042 251.896362,171.777740 
M262.476898,170.748322 
	C266.239655,170.748322 270.002441,170.748322 274.304474,170.748322 
	C272.330658,165.614502 270.445923,160.712357 268.165619,154.781342 
	C265.946838,160.519989 264.123779,165.235184 262.476898,170.748322 
z"/>
<path fill="#F9A82C" opacity="1.000000" stroke="none" 
	d="
M707.189209,183.092621 
	C695.802856,194.270264 678.833069,192.336029 670.915222,185.462494 
	C661.018616,176.871292 659.071350,161.538040 666.726746,151.185547 
	C674.799683,140.268387 691.219727,137.671768 702.948853,145.538803 
	C704.987976,146.906494 706.786438,148.632996 708.677429,150.178574 
	C706.567505,152.581985 704.720703,154.685745 702.955200,156.696823 
	C690.643738,148.105957 681.538757,147.934265 674.852356,155.781509 
	C669.818604,161.689026 670.000671,171.235275 675.254333,176.859894 
	C681.921143,183.997437 691.478516,183.620010 703.031128,175.123322 
	C704.527466,177.738708 705.986328,180.288589 707.189209,183.092621 
z"/>
<path fill="#FCAA2C" opacity="1.000000" stroke="none" 
	d="
M736.554932,145.352966 
	C739.973145,139.633240 745.135620,142.952530 750.712280,141.584015 
	C744.553223,149.467941 739.192810,156.329575 733.579834,163.514511 
	C739.540527,172.021667 745.518250,180.553131 751.543213,189.152039 
	C743.687866,191.287811 741.857849,190.665192 737.455688,184.518661 
	C734.030945,179.736938 730.602905,174.957642 726.322876,168.986588 
	C726.322876,176.793320 726.322876,183.040314 726.322876,189.644104 
	C723.119507,189.644104 720.249878,189.644104 717.137207,189.644104 
	C717.137207,173.956909 717.137207,158.350357 717.137207,142.368484 
	C719.918579,142.368484 722.784729,142.368484 726.141724,142.368484 
	C726.141724,147.121902 726.141724,151.844223 726.141724,156.566559 
	C726.489502,156.718887 726.837280,156.871231 727.185059,157.023575 
	C730.230164,153.231812 733.275330,149.440063 736.554932,145.352966 
z"/>
<path fill="#FFAB2B" opacity="1.000000" stroke="none" 
	d="
M158.944153,156.884140 
	C160.266022,157.902664 161.560272,158.860519 162.897034,158.924042 
	C167.177887,159.127426 171.474487,158.999573 175.954163,158.999573 
	C175.954163,162.107315 175.954163,164.721802 175.954163,167.753754 
	C170.548035,167.753754 165.117523,167.753754 159.312225,167.753754 
	C159.312225,172.214828 159.312225,176.273285 159.312225,180.929504 
	C164.689819,180.929504 170.243027,180.929504 175.969879,180.929504 
	C175.969879,184.131287 175.969879,186.745239 175.969879,189.681732 
	C167.512955,189.681732 159.087936,189.681732 150.286377,189.681732 
	C150.286377,174.099838 150.286377,158.378082 150.286377,142.326813 
	C158.688828,142.326813 167.231308,142.326813 175.968140,142.326813 
	C175.968140,145.130051 175.968140,147.744339 175.968140,150.780594 
	C170.521362,150.780594 165.091919,150.780594 158.936020,150.780594 
	C158.936020,152.930359 158.936020,154.672226 158.944153,156.884140 
z"/>
<path fill="#FFAB2B" opacity="1.000000" stroke="none" 
	d="
M218.140244,190.000244 
	C215.082672,190.344528 213.808914,189.717911 213.842682,186.623947 
	C214.002579,171.977753 213.914062,157.328857 213.914062,142.340790 
	C222.655197,142.340790 231.196289,142.340790 239.950256,142.340790 
	C239.950256,145.100571 239.950256,147.714890 239.950256,150.910248 
	C234.431274,150.910248 228.865204,150.910248 223.127472,150.910248 
	C223.127472,153.770126 223.127472,156.053879 223.127472,158.921143 
	C228.652664,158.921143 234.217743,158.921143 239.958557,158.921143 
	C239.958557,162.114258 239.958557,164.728424 239.958557,167.759338 
	C234.541245,167.759338 229.111526,167.759338 223.309525,167.759338 
	C223.309525,172.219543 223.309525,176.277481 223.309525,180.932159 
	C228.693268,180.932159 234.245911,180.932159 239.970917,180.932159 
	C239.970917,184.132797 239.970917,186.746475 239.970917,190.000290 
	C232.837402,190.000290 225.731155,190.000290 218.140244,190.000244 
z"/>
<path fill="#FFAB2B" opacity="1.000000" stroke="none" 
	d="
M333.913208,147.111237 
	C333.913239,145.304489 333.913239,143.985855 333.913239,142.335419 
	C342.671051,142.335419 351.211182,142.335419 359.957123,142.335419 
	C359.957123,145.111710 359.957123,147.725861 359.957123,150.920853 
	C354.416351,150.920853 348.849091,150.920853 343.121094,150.920853 
	C343.121094,153.777740 343.121094,156.061401 343.121094,158.931244 
	C348.668335,158.931244 354.226929,158.931244 359.964722,158.931244 
	C359.964722,162.124283 359.964722,164.738266 359.964722,167.769089 
	C354.528564,167.769089 349.099243,167.769089 343.304077,167.769089 
	C343.304077,172.229828 343.304077,176.287491 343.304077,180.786255 
	C348.571167,180.786255 353.988922,180.786255 359.780304,180.786255 
	C359.780304,183.921509 359.780304,186.642761 359.780304,189.686340 
	C351.502441,189.686340 343.078857,189.686340 333.913208,189.686340 
	C333.913208,175.746246 333.913208,161.672791 333.913208,147.111237 
z"/>
<path fill="#FFAB2B" opacity="1.000000" stroke="none" 
	d="
M506.186340,158.998901 
	C510.971954,158.999512 515.275513,158.999512 519.865295,158.999512 
	C519.865295,162.065216 519.865295,164.783264 519.865295,167.929474 
	C514.333252,167.929474 508.906616,167.929474 503.212952,167.929474 
	C503.212952,172.403198 503.212952,176.459396 503.212952,180.947754 
	C508.762726,180.947754 514.186218,180.947754 519.878174,180.947754 
	C519.878174,184.087402 519.878174,186.804764 519.878174,189.763763 
	C511.303314,189.763763 502.885712,189.763763 493.913208,189.763763 
	C493.913208,181.709290 493.913208,173.773453 493.913208,165.837616 
	C493.913208,158.050003 493.913208,150.262390 493.913208,142.240570 
	C502.750824,142.240570 511.165405,142.240570 519.870789,142.240570 
	C519.870789,145.075073 519.870789,147.792877 519.870789,150.937866 
	C514.322876,150.937866 508.892365,150.937866 502.688080,150.937866 
	C504.327148,153.874588 499.956116,157.912415 506.186340,158.998901 
z"/>
<path fill="#FFAB2B" opacity="1.000000" stroke="none" 
	d="
M766.067017,141.999710 
	C772.535461,141.999710 778.510864,141.999710 784.821167,141.999710 
	C784.821167,144.988541 784.821167,147.706009 784.821167,150.856918 
	C779.420349,150.856918 773.993591,150.856918 768.254639,150.856918 
	C768.254639,153.654327 768.254639,156.046387 768.254639,158.871643 
	C773.654663,158.871643 779.080200,158.871643 784.827942,158.871643 
	C784.827942,162.000824 784.827942,164.719955 784.827942,167.866455 
	C779.408020,167.866455 773.981812,167.866455 768.249023,167.866455 
	C768.249023,172.333298 768.249023,176.389725 768.249023,180.882736 
	C773.681702,180.882736 779.104797,180.882736 784.838501,180.882736 
	C784.838501,184.018921 784.838501,186.737701 784.838501,189.732147 
	C776.385132,189.732147 767.965881,189.732147 758.913208,189.732147 
	C758.913208,181.796280 758.913208,173.870773 758.913208,165.945251 
	C758.913208,158.147705 758.913208,150.350174 758.913208,141.999710 
	C761.356140,141.999710 763.465027,141.999710 766.067017,141.999710 
z"/>
<path fill="#F9A72C" opacity="1.000000" stroke="none" 
	d="
M307.768494,168.220749 
	C305.284180,165.974258 302.944946,164.077042 300.897705,161.904694 
	C296.553070,157.294525 295.635254,151.698563 298.283295,147.315018 
	C301.258820,142.389374 307.843903,139.429077 313.442139,141.464386 
	C317.290924,142.863678 320.636780,145.646271 324.805267,148.172928 
	C321.772491,150.941818 319.705475,152.828979 317.654266,154.701736 
	C315.862976,153.355453 314.333069,151.542953 312.430695,150.972351 
	C310.714813,150.457672 308.591187,151.302429 306.647369,151.547653 
	C307.111969,153.256332 307.059387,155.469574 308.140015,156.577255 
	C311.148010,159.660553 314.618286,162.294601 317.921021,165.088257 
	C323.233368,169.581696 326.598083,174.818558 324.161713,182.106659 
	C322.415222,187.331146 317.520599,190.689728 311.508270,191.004211 
	C303.693024,191.413010 298.317841,188.101807 294.844055,180.477036 
	C297.175751,179.089294 299.547485,177.677689 301.737305,176.374374 
	C303.881439,178.138062 305.564911,180.459076 307.710785,181.024124 
	C309.848145,181.586960 313.012207,181.055115 314.624054,179.696106 
	C315.508514,178.950424 314.695557,175.152130 313.601532,173.374130 
	C312.359650,171.355865 309.948639,170.056976 307.768494,168.220749 
z"/>
<path fill="#F5A52D" opacity="1.000000" stroke="none" 
	d="
M469.206116,157.083252 
	C469.206146,154.948441 469.206146,153.301758 469.206146,151.271240 
	C466.524078,151.128418 464.093201,150.998978 461.275726,150.848938 
	C461.275726,148.151642 461.275726,145.417206 461.275726,142.327911 
	C469.756653,142.327911 478.461792,142.327911 487.431335,142.327911 
	C487.431335,145.042709 487.431335,147.639999 487.431335,150.847931 
	C484.735718,150.847931 482.033966,150.847931 478.984009,150.847931 
	C478.984009,164.032715 478.984009,176.623016 478.984009,189.614990 
	C475.756042,189.614990 472.866730,189.614990 469.206116,189.614990 
	C469.206116,179.057053 469.206116,168.314224 469.206116,157.083252 
z"/>
<path fill="#F5A52D" opacity="1.000000" stroke="none" 
	d="
M565.852844,151.019836 
	C564.086609,151.020004 562.780090,151.020004 560.946594,151.020004 
	C560.946594,164.029114 560.946594,176.751480 560.946594,189.741989 
	C557.524170,189.741989 554.626587,189.741989 551.375977,189.741989 
	C551.375977,176.961166 551.375977,164.352036 551.375977,151.179001 
	C548.486511,151.179001 545.933594,151.179001 543.139648,151.179001 
	C543.139648,147.887421 543.139648,145.160797 543.139648,142.206299 
	C551.928894,142.206299 560.513489,142.206299 569.905273,142.206299 
	C567.901672,145.164688 573.450806,150.135086 565.852844,151.019836 
z"/>
<path fill="#F0A22E" opacity="1.000000" stroke="none" 
	d="
M206.858017,186.874680 
	C205.863632,188.231110 204.898880,189.866638 203.872925,189.905991 
	C197.586411,190.147064 191.286026,190.026672 184.369110,190.026672 
	C184.369110,181.816071 184.369110,173.892868 184.369110,165.969650 
	C184.369110,158.189728 184.369110,150.409805 184.369110,142.302673 
	C187.600967,142.302673 190.468018,142.302673 193.829224,142.302673 
	C193.829224,155.113892 193.829224,167.811005 193.829224,180.845276 
	C198.236099,180.845276 202.171585,180.845276 206.859344,180.845276 
	C206.859344,182.927582 206.859344,184.671799 206.858017,186.874680 
z"/>
<path fill="#13096D" opacity="1.000000" stroke="none" 
	d="
M590.257568,90.395821 
	C594.554077,92.566826 596.024719,95.775597 595.218445,100.043442 
	C594.399780,104.376411 590.846619,105.194687 587.362793,105.641617 
	C584.601196,105.995895 581.757751,105.712944 578.635376,105.712944 
	C578.635376,100.337273 578.635376,94.940849 578.635376,88.657654 
	C582.538513,89.193527 586.220764,89.699081 590.257568,90.395821 
z"/>
<path fill="#180C6B" opacity="1.000000" stroke="none" 
	d="
M590.754211,69.964081 
	C588.671021,76.444008 586.457397,77.604820 578.569153,76.575966 
	C578.569153,72.187416 578.569153,67.768166 578.569153,63.380836 
	C586.577209,62.439430 588.981750,63.695824 590.754211,69.964081 
z"/>
<path fill="#0F086B" opacity="1.000000" stroke="none" 
	d="
M186.840576,90.322708 
	C181.435745,90.740929 176.133850,90.740929 170.299850,90.740929 
	C173.027359,83.419395 175.669815,76.326164 178.801804,67.918823 
	C181.801575,76.019325 184.372543,82.961906 186.840576,90.322708 
z"/>
<path fill="#0B066D" opacity="1.000000" stroke="none" 
	d="
M348.097290,90.465942 
	C348.735901,103.021164 340.864166,110.574593 330.891449,107.448685 
	C324.183716,105.346169 320.329834,99.073441 321.083405,91.484627 
	C321.755005,84.721077 327.141541,79.425255 333.770050,79.011642 
	C340.926239,78.565086 346.031036,82.505928 348.097290,90.465942 
z"/>
<path fill="#0C066C" opacity="1.000000" stroke="none" 
	d="
M648.645874,107.016304 
	C641.115051,109.151604 635.231750,107.047310 632.004700,101.303581 
	C628.583069,95.213501 629.495422,87.597435 634.208191,82.910561 
	C638.728210,78.415367 645.526794,77.776100 651.101929,81.039734 
	C659.544983,85.982162 659.870789,102.791130 648.645874,107.016304 
z"/>
<path fill="#0C066C" opacity="1.000000" stroke="none" 
	d="
M695.595642,82.539528 
	C702.039368,77.798660 709.124634,77.888718 714.011230,82.510994 
	C718.806824,87.047203 719.772949,96.083618 716.076477,101.827377 
	C712.561340,107.289192 705.660767,109.435730 699.446594,107.000320 
	C690.255371,103.398148 688.199646,91.341797 695.595642,82.539528 
z"/>
<path fill="#0C066C" opacity="1.000000" stroke="none" 
	d="
M438.707397,79.260216 
	C449.211090,78.662529 455.127655,83.696342 455.230469,92.879776 
	C455.333405,102.070541 449.605103,108.245888 441.209747,107.994759 
	C434.572388,107.796204 429.368774,103.193153 428.186157,96.474236 
	C426.806519,88.636208 430.586182,82.248199 438.707397,79.260216 
z"/>
<path fill="#09076C" opacity="1.000000" stroke="none" 
	d="
M397.734192,166.083069 
	C396.634857,178.552200 392.060394,181.920532 378.144165,180.660416 
	C378.144165,170.996811 378.144165,161.298630 378.150757,151.598846 
	C389.780457,149.399185 395.967224,153.847778 397.734192,166.083069 
z"/>
<path fill="#190D6A" opacity="1.000000" stroke="none" 
	d="
M812.419312,152.507675 
	C815.647339,159.044891 813.027832,161.458755 803.302124,160.707092 
	C803.302124,159.202332 803.302124,157.631027 803.302124,156.059708 
	C803.302124,154.591583 803.302124,153.123459 803.302124,150.604462 
	C806.571533,151.209946 809.343201,151.723236 812.419312,152.507675 
z"/>
<path fill="#190D6A" opacity="1.000000" stroke="none" 
	d="
M595.968994,155.253662 
	C594.870056,160.763565 593.311584,161.530167 585.575928,160.616074 
	C585.575928,157.582077 585.575928,154.514343 585.575928,151.233902 
	C589.715576,150.955734 593.792053,150.022812 595.968994,155.253662 
z"/>
<path fill="#190D6A" opacity="1.000000" stroke="none" 
	d="
M125.584816,151.022354 
	C129.322098,151.761734 131.937912,153.559219 130.822525,157.165604 
	C129.217010,162.356750 124.653984,160.834442 120.563400,160.838135 
	C120.563400,157.545731 120.563400,154.480988 120.563400,150.990067 
	C122.255516,150.990067 123.709442,150.990067 125.584816,151.022354 
z"/>
<path fill="#120A6A" opacity="1.000000" stroke="none" 
	d="
M638.997925,167.173798 
	C639.457520,168.463745 639.777405,169.371918 640.241272,170.688675 
	C636.048889,170.688675 632.249084,170.688675 628.031860,170.688675 
	C629.984680,165.609467 631.849731,160.758652 634.114685,154.867508 
	C635.948608,159.477707 637.403442,163.134857 638.997925,167.173798 
z"/>
<path fill="#120A6A" opacity="1.000000" stroke="none" 
	d="
M433.296844,171.007538 
	C431.727112,170.952301 430.594910,170.897064 428.980377,170.818298 
	C431.001953,165.591064 432.918457,160.635452 435.175476,154.799423 
	C437.423492,160.618942 439.285889,165.440216 441.436493,171.007568 
	C438.490051,171.007568 436.112213,171.007568 433.296844,171.007538 
z"/>
<path fill="#120A6A" opacity="1.000000" stroke="none" 
	d="
M262.388794,170.349350 
	C264.123779,165.235184 265.946838,160.519989 268.165619,154.781342 
	C270.445923,160.712357 272.330658,165.614502 274.304474,170.748322 
	C270.002441,170.748322 266.239655,170.748322 262.388794,170.349350 
z"/>
</svg>